<svg width="32" height="32" viewBox="0 0 32 32" fill="none" xmlns="http://www.w3.org/2000/svg">
<path d="M5.33334 24H8.00001V29.4413L14.8013 24H21.3333C22.804 24 24 22.804 24 21.3333V10.6667C24 9.196 22.804 8 21.3333 8H5.33334C3.86267 8 2.66667 9.196 2.66667 10.6667V21.3333C2.66667 22.804 3.86267 24 5.33334 24Z" fill="black"/>
<path d="M26.6667 2.66699H10.6667C9.196 2.66699 8 3.86299 8 5.33366H24C25.4707 5.33366 26.6667 6.52966 26.6667 8.00033V18.667C28.1373 18.667 29.3333 17.471 29.3333 16.0003V5.33366C29.3333 3.86299 28.1373 2.66699 26.6667 2.66699Z" fill="black"/>
</svg>
