<svg width="21" height="21" viewBox="0 0 21 21" fill="none" xmlns="http://www.w3.org/2000/svg">
<path d="M17.8083 16.5751C17.8083 16.8751 17.7417 17.1835 17.6 17.4835C17.4583 17.7835 17.275 18.0668 17.0333 18.3335C16.625 18.7835 16.175 19.1085 15.6667 19.3168C15.1667 19.5251 14.625 19.6335 14.0417 19.6335C13.1917 19.6335 12.2833 19.4335 11.325 19.0251C10.3667 18.6168 9.40832 18.0668 8.45832 17.3751C7.49999 16.6751 6.59166 15.9001 5.72499 15.0418C4.86666 14.1751 4.09166 13.2668 3.39999 12.3168C2.71666 11.3668 2.16666 10.4168 1.76666 9.47513C1.36666 8.52513 1.16666 7.6168 1.16666 6.75013C1.16666 6.18346 1.26666 5.6418 1.46666 5.1418C1.66666 4.63346 1.98332 4.1668 2.42499 3.75013C2.95832 3.22513 3.54166 2.9668 4.15832 2.9668C4.39166 2.9668 4.62499 3.0168 4.83332 3.1168C5.04999 3.2168 5.24166 3.3668 5.39166 3.58346L7.32499 6.30846C7.47499 6.5168 7.58332 6.70846 7.65832 6.8918C7.73332 7.0668 7.77499 7.2418 7.77499 7.40013C7.77499 7.60013 7.71666 7.80013 7.59999 7.9918C7.49166 8.18346 7.33332 8.38346 7.13332 8.58346L6.49999 9.2418C6.40832 9.33346 6.36666 9.4418 6.36666 9.57513C6.36666 9.6418 6.37499 9.70013 6.39166 9.7668C6.41666 9.83346 6.44166 9.88346 6.45832 9.93346C6.60832 10.2085 6.86666 10.5668 7.23332 11.0001C7.60832 11.4335 8.00832 11.8751 8.44166 12.3168C8.89166 12.7585 9.32499 13.1668 9.76666 13.5418C10.2 13.9085 10.5583 14.1585 10.8417 14.3085C10.8833 14.3251 10.9333 14.3501 10.9917 14.3751C11.0583 14.4001 11.125 14.4085 11.2 14.4085C11.3417 14.4085 11.45 14.3585 11.5417 14.2668L12.175 13.6418C12.3833 13.4335 12.5833 13.2751 12.775 13.1751C12.9667 13.0585 13.1583 13.0001 13.3667 13.0001C13.525 13.0001 13.6917 13.0335 13.875 13.1085C14.0583 13.1835 14.25 13.2918 14.4583 13.4335L17.2167 15.3918C17.4333 15.5418 17.5833 15.7168 17.675 15.9251C17.7583 16.1335 17.8083 16.3418 17.8083 16.5751Z" stroke="#EF3009" stroke-width="1.2" stroke-miterlimit="10"/>
<path d="M14.9167 8.80046C14.9167 8.30046 14.525 7.53379 13.9417 6.90879C13.4084 6.33379 12.7 5.88379 12 5.88379" stroke="#EF3009" stroke-width="1.2" stroke-linecap="round" stroke-linejoin="round"/>
<path d="M17.8334 8.80013C17.8334 5.57513 15.225 2.9668 12 2.9668" stroke="#EF3009" stroke-width="1.2" stroke-linecap="round" stroke-linejoin="round"/>
</svg>
