<svg width="17" height="16" viewBox="0 0 17 16" fill="none" xmlns="http://www.w3.org/2000/svg">
<path d="M9.85656 3.0596C9.7954 2.99927 9.72297 2.95156 9.64338 2.91922C9.56379 2.88688 9.47861 2.87053 9.3927 2.87111C9.3068 2.87169 9.22185 2.88918 9.1427 2.92259C9.06355 2.95599 8.99176 3.00466 8.93142 3.06582C8.87109 3.12697 8.82339 3.19941 8.79104 3.279C8.7587 3.35858 8.74235 3.44376 8.74293 3.52967C8.74351 3.61558 8.761 3.70053 8.79441 3.77968C8.82781 3.85882 8.87648 3.93061 8.93764 3.99095L12.4498 7.45211H3.50914C3.33568 7.45211 3.16932 7.52102 3.04667 7.64367C2.92401 7.76633 2.8551 7.93268 2.8551 8.10614C2.8551 8.27961 2.92401 8.44596 3.04667 8.56862C3.16932 8.69127 3.33568 8.76018 3.50914 8.76018H12.4465L8.93764 12.2168C8.82031 12.3397 8.75545 12.5035 8.75682 12.6735C8.75818 12.8435 8.82565 13.0062 8.94494 13.1273C9.06422 13.2484 9.22596 13.3182 9.39587 13.3221C9.56579 13.326 9.73055 13.2636 9.85525 13.1481L14.3844 8.68627C14.4616 8.61022 14.5228 8.51959 14.5646 8.41966C14.6064 8.31974 14.6279 8.2125 14.6279 8.10418C14.6279 7.99587 14.6064 7.88863 14.5646 7.7887C14.5228 7.68877 14.4616 7.59815 14.3844 7.52209L9.85656 3.0596Z" fill="#EF3009"/>
</svg>
