<svg width="17" height="16" viewBox="0 0 17 16" fill="none" xmlns="http://www.w3.org/2000/svg">
<path d="M9.76686 3.0596C9.70571 2.99927 9.63327 2.95156 9.55368 2.91922C9.47409 2.88688 9.38892 2.87053 9.30301 2.87111C9.2171 2.87169 9.13215 2.88918 9.053 2.92259C8.97386 2.95599 8.90207 3.00466 8.84173 3.06582C8.78139 3.12697 8.73369 3.19941 8.70135 3.279C8.66901 3.35858 8.65266 3.44376 8.65323 3.52967C8.65381 3.61558 8.6713 3.70053 8.70471 3.77968C8.73812 3.85882 8.78679 3.93061 8.84794 3.99095L12.3601 7.45211H3.41944C3.24598 7.45211 3.07963 7.52102 2.95697 7.64367C2.83431 7.76633 2.76541 7.93268 2.76541 8.10614C2.76541 8.27961 2.83431 8.44596 2.95697 8.56862C3.07963 8.69127 3.24598 8.76018 3.41944 8.76018H12.3568L8.84794 12.2168C8.73061 12.3397 8.66576 12.5035 8.66712 12.6735C8.66848 12.8435 8.73595 13.0062 8.85524 13.1273C8.97453 13.2484 9.13626 13.3182 9.30618 13.3221C9.4761 13.326 9.64086 13.2636 9.76555 13.1481L14.2948 8.68627C14.3719 8.61022 14.4331 8.51959 14.4749 8.41966C14.5167 8.31974 14.5382 8.2125 14.5382 8.10418C14.5382 7.99587 14.5167 7.88863 14.4749 7.7887C14.4331 7.68877 14.3719 7.59815 14.2948 7.52209L9.76686 3.0596Z" fill="#EF3009"/>
</svg>
