<svg width="25" height="24" viewBox="0 0 25 24" fill="none" xmlns="http://www.w3.org/2000/svg">
<path d="M5.75 4H19.25C20.0801 3.99995 20.8788 4.31755 21.4822 4.88767C22.0856 5.45779 22.448 6.23719 22.495 7.066L22.5 7.25V16.75C22.5001 17.5801 22.1824 18.3788 21.6123 18.9822C21.0422 19.5856 20.2628 19.948 19.434 19.995L19.25 20H5.75C4.91986 20.0001 4.12117 19.6824 3.51777 19.1123C2.91437 18.5422 2.552 17.7628 2.505 16.934L2.5 16.75V7.25C2.49995 6.41986 2.81755 5.62117 3.38767 5.01777C3.95779 4.41437 4.73719 4.052 5.566 4.005L5.75 4ZM21 9.373L12.85 13.663C12.758 13.7116 12.6568 13.7405 12.553 13.7479C12.4492 13.7553 12.345 13.7411 12.247 13.706L12.151 13.664L4 9.374V16.75C4.00002 17.1892 4.16517 17.6123 4.46268 17.9354C4.76019 18.2585 5.1683 18.4579 5.606 18.494L5.75 18.5H19.25C19.6893 18.5 20.1126 18.3347 20.4357 18.037C20.7588 17.7392 20.9581 17.3309 20.994 16.893L21 16.75V9.373ZM19.25 5.5H5.75C5.31081 5.50002 4.88768 5.66517 4.56461 5.96268C4.24154 6.26019 4.04214 6.6683 4.006 7.106L4 7.25V7.679L12.5 12.153L21 7.678V7.25C21 6.81065 20.8347 6.38739 20.537 6.06429C20.2392 5.74119 19.8309 5.5419 19.393 5.506L19.25 5.5Z" fill="#1F1F1F"/>
</svg>
