<svg width="20" height="20" viewBox="0 0 20 20" fill="none" xmlns="http://www.w3.org/2000/svg">
<path d="M11.4208 3.57027C11.3429 3.49339 11.2506 3.43261 11.1492 3.3914C11.0478 3.35019 10.9393 3.32936 10.8298 3.3301C10.7204 3.33083 10.6121 3.35312 10.5113 3.39569C10.4104 3.43825 10.319 3.50026 10.2421 3.57818C10.1652 3.6561 10.1044 3.7484 10.0632 3.8498C10.022 3.95121 10.0012 4.05974 10.0019 4.1692C10.0026 4.27865 10.0249 4.38689 10.0675 4.48774C10.1101 4.58858 10.1721 4.68005 10.25 4.75693L14.725 9.16693H3.33333C3.11232 9.16693 2.90036 9.25473 2.74408 9.41101C2.5878 9.56729 2.5 9.77925 2.5 10.0003C2.5 10.2213 2.5878 10.4332 2.74408 10.5895C2.90036 10.7458 3.11232 10.8336 3.33333 10.8336H14.7208L10.25 15.2378C10.1005 15.3944 10.0179 15.6032 10.0196 15.8197C10.0213 16.0363 10.1073 16.2436 10.2593 16.3979C10.4113 16.5522 10.6174 16.6412 10.8339 16.6462C11.0504 16.6511 11.2603 16.5716 11.4192 16.4244L17.19 10.7394C17.2883 10.6425 17.3663 10.5271 17.4195 10.3997C17.4728 10.2724 17.5002 10.1358 17.5002 9.99777C17.5002 9.85975 17.4728 9.72312 17.4195 9.5958C17.3663 9.46848 17.2883 9.35301 17.19 9.2561L11.4208 3.57027Z" fill="white"/>
</svg>
