<svg width="25" height="25" viewBox="0 0 25 25" fill="none" xmlns="http://www.w3.org/2000/svg">
<path d="M5.75 4.2998H19.25C20.0801 4.29975 20.8788 4.61736 21.4822 5.18748C22.0856 5.75759 22.448 6.537 22.495 7.3658L22.5 7.5498V17.0498C22.5001 17.8799 22.1824 18.6786 21.6123 19.282C21.0422 19.8854 20.2628 20.2478 19.434 20.2948L19.25 20.2998H5.75C4.91986 20.2999 4.12117 19.9823 3.51777 19.4121C2.91437 18.842 2.552 18.0626 2.505 17.2338L2.5 17.0498V7.5498C2.49995 6.71967 2.81755 5.92098 3.38767 5.31757C3.95779 4.71417 4.73719 4.3518 5.566 4.3048L5.75 4.2998ZM21 9.6728L12.85 13.9628C12.758 14.0114 12.6568 14.0403 12.553 14.0478C12.4492 14.0552 12.345 14.0409 12.247 14.0058L12.151 13.9638L4 9.6738V17.0498C4.00002 17.489 4.16517 17.9121 4.46268 18.2352C4.76019 18.5583 5.1683 18.7577 5.606 18.7938L5.75 18.7998H19.25C19.6893 18.7998 20.1126 18.6345 20.4357 18.3368C20.7588 18.039 20.9581 17.6307 20.994 17.1928L21 17.0498V9.6728ZM19.25 5.7998H5.75C5.31081 5.79982 4.88768 5.96498 4.56461 6.26248C4.24154 6.55999 4.04214 6.9681 4.006 7.4058L4 7.5498V7.9788L12.5 12.4528L21 7.9778V7.5498C21 7.11046 20.8347 6.68719 20.537 6.3641C20.2392 6.041 19.8309 5.84171 19.393 5.8058L19.25 5.7998Z" fill="#EF3009"/>
</svg>
