<svg width="114" height="37" viewBox="0 0 114 37" fill="none" xmlns="http://www.w3.org/2000/svg">
<g clip-path="url(#clip0_8320_1465)">
<path d="M42.8045 36.2362C40.7396 36.2362 38.9007 35.8005 37.2876 34.9295C35.7067 34.0583 34.4645 32.8484 33.5613 31.3C32.6579 29.7513 32.2062 27.9607 32.2062 25.9283V12.3779H38.5943V25.7831C38.5943 26.751 38.7555 27.5897 39.0782 28.2994C39.4007 28.9771 39.8847 29.4931 40.5299 29.8481C41.1751 30.203 41.9333 30.3805 42.8045 30.3805C44.1272 30.3805 45.1596 29.9771 45.9016 29.1706C46.6438 28.3639 47.0148 27.2348 47.0148 25.7831V12.3779H53.3544V25.9283C53.3544 27.993 52.9027 29.7996 51.9992 31.3483C51.1282 32.8969 49.8861 34.1068 48.2729 34.9778C46.6921 35.8167 44.8694 36.2362 42.8045 36.2362Z" fill="#F5F5F5"/>
<path d="M55.9832 35.7518V12.3775H62.3711V35.7518H55.9832ZM59.177 8.60283C58.1446 8.60283 57.2896 8.26407 56.6122 7.58656C55.9347 6.87678 55.5959 6.00569 55.5959 4.97329C55.5959 3.97316 55.9347 3.11819 56.6122 2.40842C57.2896 1.69864 58.1446 1.34375 59.177 1.34375C60.2417 1.34375 61.0966 1.69864 61.7419 2.40842C62.4195 3.11819 62.7583 3.97316 62.7583 4.97329C62.7583 6.00569 62.4195 6.87678 61.7419 7.58656C61.0966 8.26407 60.2417 8.60283 59.177 8.60283Z" fill="#F5F5F5"/>
<path d="M75.4396 36.2364C73.278 36.2364 71.3423 35.704 69.6324 34.6393C67.9225 33.5746 66.5674 32.1229 65.5674 30.2838C64.5995 28.4449 64.1155 26.3801 64.1155 24.0895C64.1155 21.7666 64.5995 19.6857 65.5674 17.8467C66.5674 16.0077 67.9063 14.5559 69.584 13.4913C71.2939 12.4266 73.2457 11.8943 75.4396 11.8943C77.1173 11.8943 78.6176 12.233 79.9403 12.9105C81.2953 13.588 82.3761 14.5398 83.1826 15.7658C84.0215 16.9595 84.4733 18.3145 84.5378 19.8309V28.1547C84.4733 29.6709 84.0376 31.042 83.2311 32.268C82.4244 33.4941 81.3437 34.4618 79.9888 35.1717C78.6336 35.8815 77.1173 36.2364 75.4396 36.2364ZM76.5043 30.3808C77.698 30.3808 78.7304 30.1226 79.6016 29.6064C80.5048 29.0579 81.1985 28.3159 81.6825 27.3803C82.1987 26.4123 82.4567 25.2994 82.4567 24.0412C82.4567 22.8151 82.1987 21.7343 81.6825 20.7987C81.1985 19.8309 80.5048 19.0888 79.6016 18.5725C78.7304 18.0241 77.7142 17.7499 76.5527 17.7499C75.3591 17.7499 74.3104 18.0241 73.4072 18.5725C72.536 19.121 71.8423 19.8632 71.3261 20.7987C70.8423 21.7343 70.6003 22.8151 70.6003 24.0412C70.6003 25.2994 70.8423 26.4123 71.3261 27.3803C71.8423 28.3159 72.5522 29.0579 73.4555 29.6064C74.3589 30.1226 75.3751 30.3808 76.5043 30.3808ZM88.4093 35.7525H82.118V29.4611L83.1343 23.7507L82.0697 18.1371V0.763672H88.4093V35.7525Z" fill="#F5F5F5"/>
<path d="M102.777 36.2363C100.325 36.2363 98.1471 35.7201 96.2437 34.6876C94.3401 33.623 92.8239 32.1711 91.6947 30.3322C90.5978 28.4932 90.0493 26.3961 90.0493 24.041C90.0493 21.718 90.5816 19.6533 91.6463 17.8465C92.7432 16.0076 94.2273 14.5558 96.0985 13.4911C97.9697 12.3942 100.051 11.8457 102.341 11.8457C104.6 11.8457 106.584 12.3619 108.294 13.3943C110.036 14.3944 111.391 15.7817 112.359 17.5562C113.359 19.2983 113.859 21.2825 113.859 23.5086C113.859 23.928 113.827 24.3635 113.762 24.8152C113.73 25.2347 113.649 25.7187 113.52 26.2671L93.8724 26.3154V21.5729L110.568 21.5245L108.003 23.5086C107.939 22.1214 107.681 20.9599 107.229 20.0243C106.81 19.0886 106.181 18.3789 105.342 17.8949C104.535 17.3787 103.535 17.1206 102.341 17.1206C101.083 17.1206 99.9861 17.411 99.0506 17.9917C98.1149 18.5401 97.389 19.3306 96.8727 20.363C96.3888 21.3632 96.147 22.5569 96.147 23.9441C96.147 25.3637 96.405 26.6059 96.9212 27.6705C97.4697 28.703 98.2439 29.5095 99.2441 30.0902C100.244 30.6386 101.406 30.9129 102.728 30.9129C103.922 30.9129 105.003 30.7194 105.971 30.3322C106.939 29.9127 107.778 29.2997 108.487 28.4932L112.214 32.2195C111.084 33.5422 109.697 34.5424 108.052 35.2199C106.439 35.8974 104.68 36.2363 102.777 36.2363Z" fill="#F5F5F5"/>
<path fill-rule="evenodd" clip-rule="evenodd" d="M22.5608 18.2973C21.5786 15.151 18.7053 12.8733 15.3136 12.8733C11.922 12.8733 9.04867 15.151 8.06636 18.2973H0.815308C1.92927 11.1087 7.99629 5.61426 15.3136 5.61426C22.6309 5.61426 28.6979 11.1087 29.8119 18.2973H22.5608Z" fill="#F5F5F5"/>
<path fill-rule="evenodd" clip-rule="evenodd" d="M15.3137 28.4936C17.4634 28.4936 19.405 27.5786 20.7887 26.1071H15.9233V21.2021H29.9948V35.7524H25.2159V31.8093C22.6052 34.2585 19.1295 35.7527 15.3137 35.7527C7.37438 35.7527 0.907013 29.2844 0.640961 21.2021H7.72139C7.98118 25.2737 11.2811 28.4936 15.3137 28.4936Z" fill="#EF3009"/>
</g>
<defs>
<clipPath id="clip0_8320_1465">
<rect width="113.5" height="35.6009" fill="white" transform="translate(0.5 0.699219)"/>
</clipPath>
</defs>
</svg>
