<svg width="114" height="36" viewBox="0 0 114 36" fill="none" xmlns="http://www.w3.org/2000/svg">
<g clip-path="url(#clip0_8320_2221)">
<path d="M42.3045 35.7366C40.2396 35.7366 38.4007 35.301 36.7876 34.43C35.2067 33.5588 33.9645 32.3489 33.0613 30.8005C32.1579 29.2518 31.7062 27.4612 31.7062 25.4288V11.8784H38.0943V25.2835C38.0943 26.2515 38.2555 27.0902 38.5782 27.7999C38.9007 28.4776 39.3847 28.9936 40.0299 29.3486C40.6751 29.7035 41.4333 29.881 42.3045 29.881C43.6272 29.881 44.6596 29.4776 45.4016 28.6711C46.1438 27.8644 46.5148 26.7353 46.5148 25.2835V11.8784H52.8544V25.4288C52.8544 27.4934 52.4027 29.3001 51.4992 30.8487C50.6282 32.3974 49.3861 33.6073 47.7729 34.4783C46.1921 35.3172 44.3694 35.7366 42.3045 35.7366Z" fill="#F5F5F5"/>
<path d="M55.4832 35.2523V11.878H61.8711V35.2523H55.4832ZM58.677 8.10332C57.6446 8.10332 56.7896 7.76456 56.1122 7.08705C55.4347 6.37727 55.0959 5.50618 55.0959 4.47378C55.0959 3.47364 55.4347 2.61867 56.1122 1.9089C56.7896 1.19913 57.6446 0.844238 58.677 0.844238C59.7417 0.844238 60.5966 1.19913 61.2419 1.9089C61.9195 2.61867 62.2583 3.47364 62.2583 4.47378C62.2583 5.50618 61.9195 6.37727 61.2419 7.08705C60.5966 7.76456 59.7417 8.10332 58.677 8.10332Z" fill="#F5F5F5"/>
<path d="M74.9396 35.7364C72.778 35.7364 70.8423 35.204 69.1324 34.1393C67.4225 33.0746 66.0674 31.6229 65.0674 29.7838C64.0995 27.9449 63.6155 25.8801 63.6155 23.5895C63.6155 21.2666 64.0995 19.1857 65.0674 17.3467C66.0674 15.5077 67.4063 14.0559 69.084 12.9913C70.7939 11.9266 72.7457 11.3943 74.9396 11.3943C76.6173 11.3943 78.1176 11.733 79.4403 12.4105C80.7953 13.088 81.8761 14.0398 82.6826 15.2658C83.5215 16.4595 83.9733 17.8145 84.0378 19.3309V27.6547C83.9733 29.1709 83.5376 30.542 82.7311 31.768C81.9244 32.9941 80.8437 33.9618 79.4888 34.6717C78.1336 35.3815 76.6173 35.7364 74.9396 35.7364ZM76.0043 29.8808C77.198 29.8808 78.2304 29.6226 79.1016 29.1064C80.0048 28.5579 80.6985 27.8159 81.1825 26.8803C81.6987 25.9123 81.9567 24.7994 81.9567 23.5412C81.9567 22.3151 81.6987 21.2343 81.1825 20.2987C80.6985 19.3309 80.0048 18.5888 79.1016 18.0725C78.2304 17.5241 77.2142 17.2499 76.0527 17.2499C74.8591 17.2499 73.8104 17.5241 72.9072 18.0725C72.036 18.621 71.3423 19.3632 70.8261 20.2987C70.3423 21.2343 70.1003 22.3151 70.1003 23.5412C70.1003 24.7994 70.3423 25.9123 70.8261 26.8803C71.3423 27.8159 72.0522 28.5579 72.9555 29.1064C73.8589 29.6226 74.8751 29.8808 76.0043 29.8808ZM87.9093 35.2525H81.618V28.9611L82.6343 23.2507L81.5697 17.6371V0.263672H87.9093V35.2525Z" fill="#F5F5F5"/>
<path d="M102.277 35.7363C99.825 35.7363 97.6471 35.2201 95.7437 34.1876C93.8401 33.123 92.3239 31.6711 91.1947 29.8322C90.0978 27.9932 89.5493 25.8961 89.5493 23.541C89.5493 21.218 90.0816 19.1533 91.1463 17.3465C92.2432 15.5076 93.7273 14.0558 95.5985 12.9911C97.4697 11.8942 99.5507 11.3457 101.841 11.3457C104.1 11.3457 106.084 11.8619 107.794 12.8943C109.536 13.8944 110.891 15.2817 111.859 17.0562C112.859 18.7983 113.359 20.7825 113.359 23.0086C113.359 23.428 113.327 23.8635 113.262 24.3152C113.23 24.7347 113.149 25.2187 113.02 25.7671L93.3724 25.8154V21.0729L110.068 21.0245L107.503 23.0086C107.439 21.6214 107.181 20.4599 106.729 19.5243C106.31 18.5886 105.681 17.8789 104.842 17.3949C104.035 16.8787 103.035 16.6206 101.841 16.6206C100.583 16.6206 99.4861 16.911 98.5506 17.4917C97.6149 18.0401 96.889 18.8306 96.3727 19.863C95.8888 20.8632 95.647 22.0569 95.647 23.4441C95.647 24.8637 95.905 26.1059 96.4212 27.1705C96.9697 28.203 97.7439 29.0095 98.7441 29.5902C99.7443 30.1386 100.906 30.4129 102.228 30.4129C103.422 30.4129 104.503 30.2194 105.471 29.8322C106.439 29.4127 107.278 28.7997 107.987 27.9932L111.714 31.7195C110.584 33.0422 109.197 34.0424 107.552 34.7199C105.939 35.3974 104.18 35.7363 102.277 35.7363Z" fill="#F5F5F5"/>
<path fill-rule="evenodd" clip-rule="evenodd" d="M22.0608 17.7978C21.0786 14.6514 18.2053 12.3738 14.8136 12.3738C11.422 12.3738 8.54867 14.6514 7.56636 17.7978H0.315308C1.42927 10.6092 7.49629 5.11475 14.8136 5.11475C22.1309 5.11475 28.1979 10.6092 29.3119 17.7978H22.0608Z" fill="#F5F5F5"/>
<path fill-rule="evenodd" clip-rule="evenodd" d="M14.8137 27.9936C16.9634 27.9936 18.905 27.0786 20.2887 25.6071H15.4233V20.7021H29.4948V35.2524H24.7159V31.3093C22.1052 33.7585 18.6295 35.2527 14.8137 35.2527C6.87438 35.2527 0.407013 28.7844 0.140961 20.7021H7.22139C7.48118 24.7737 10.7811 27.9936 14.8137 27.9936Z" fill="#F5F5F5"/>
</g>
<defs>
<clipPath id="clip0_8320_2221">
<rect width="113.5" height="35.6009" fill="white" transform="translate(0 0.199707)"/>
</clipPath>
</defs>
</svg>
