<svg width="48" height="49" viewBox="0 0 48 49" fill="none" xmlns="http://www.w3.org/2000/svg">
<path d="M16.633 38.3187C20.3011 40.1826 24.841 38.8543 26.9078 35.2349C27.4897 34.2159 27.8306 33.0822 27.9161 31.9217C25.4058 33.1463 22.417 33.0621 19.9773 31.6605C15.9163 29.3274 14.5054 24.1172 16.8314 20.0439C17.5404 18.8023 18.552 17.7626 19.7587 17.0226C19.7846 15.6042 20.1668 14.203 20.8758 12.9614C22.3452 10.3882 24.963 8.87792 27.7144 8.70195C21.074 7.19854 13.9416 10.1115 10.3847 16.3402C6.02103 23.9818 8.66765 33.7545 16.2831 38.1297C16.4 38.1969 16.5173 38.2563 16.636 38.3204L16.633 38.3187Z" fill="#F3F4F6"/>
<path d="M21.4458 13.3013C20.8639 14.3204 20.523 15.454 20.4374 16.6145C22.9478 15.3898 25.9337 15.4724 28.3733 16.874C32.4343 19.2071 33.8465 24.422 31.5205 28.4953C30.8133 29.7339 29.8016 30.7735 28.5949 31.5135C28.5691 32.9319 28.1868 34.3332 27.4778 35.5748C26.0067 38.151 23.3889 39.6613 20.6375 39.8373C27.2792 41.3454 34.4133 38.4294 37.9702 32.2007C42.3321 24.5621 39.6843 14.7847 32.0688 10.4095C31.9519 10.3424 31.8346 10.2829 31.7159 10.2188C28.0478 8.35487 23.5109 9.68491 21.4458 13.3013Z" fill="#DEE1E6"/>
</svg>
