<svg width="48" height="49" viewBox="0 0 48 49" fill="none" xmlns="http://www.w3.org/2000/svg">
<path d="M16.4043 38.3187C20.0725 40.1826 24.6123 38.8543 26.6791 35.2349C27.2611 34.2159 27.6019 33.0822 27.6875 31.9217C25.1771 33.1463 22.1883 33.0621 19.7487 31.6605C15.6877 29.3274 14.2767 24.1172 16.6027 20.0439C17.3117 18.8023 18.3234 17.7626 19.5301 17.0226C19.5559 15.6042 19.9382 14.203 20.6472 12.9614C22.1166 10.3882 24.7343 8.87792 27.4857 8.70195C20.8453 7.19854 13.7129 10.1115 10.1561 16.3402C5.79238 23.9818 8.43899 33.7545 16.0545 38.1297C16.1714 38.1969 16.2887 38.2563 16.4073 38.3204L16.4043 38.3187Z" fill="#F3F4F6"/>
<path d="M21.2172 13.3013C20.6352 14.3204 20.2944 15.454 20.2088 16.6145C22.7192 15.3898 25.705 15.4724 28.1446 16.874C32.2056 19.2071 33.6179 24.422 31.2918 28.4953C30.5846 29.7339 29.5729 30.7735 28.3662 31.5135C28.3404 32.9319 27.9581 34.3332 27.2491 35.5748C25.778 38.151 23.1602 39.6613 20.4088 39.8373C27.0505 41.3454 34.1846 38.4294 37.7415 32.2007C42.1034 24.5621 39.4556 14.7847 31.8401 10.4095C31.7232 10.3424 31.6059 10.2829 31.4873 10.2188C27.8191 8.35487 23.2823 9.68491 21.2172 13.3013Z" fill="#DEE1E6"/>
</svg>
