<svg width="32" height="32" viewBox="0 0 32 32" fill="none" xmlns="http://www.w3.org/2000/svg">
<path d="M4.00001 28C3.26668 28 2.63912 27.7391 2.11734 27.2173C1.59557 26.6956 1.33423 26.0676 1.33334 25.3333V8.66667H4.00001V25.3333H26V28H4.00001ZM9.33334 22.6667C8.60001 22.6667 7.97245 22.4058 7.45068 21.884C6.9289 21.3622 6.66757 20.7342 6.66668 20V6.66667C6.66668 5.93333 6.92801 5.30578 7.45068 4.784C7.97334 4.26222 8.6009 4.00089 9.33334 4H28C28.7333 4 29.3613 4.26133 29.884 4.784C30.4067 5.30667 30.6676 5.93422 30.6667 6.66667V20C30.6667 20.7333 30.4058 21.3613 29.884 21.884C29.3622 22.4067 28.7342 22.6676 28 22.6667H9.33334ZM18.6667 16.4L28 9.9V6.66667L18.6667 13.1333L9.33334 6.66667V9.9L18.6667 16.4Z" fill="black"/>
</svg>
