<svg width="32" height="32" viewBox="0 0 32 32" fill="none" xmlns="http://www.w3.org/2000/svg">
<path d="M22.0766 17.2073L21.4699 17.8113C21.4699 17.8113 20.0259 19.246 16.0859 15.3287C12.1459 11.4113 13.5899 9.97665 13.5899 9.97665L13.9712 9.59532C14.9139 8.65932 15.0032 7.15532 14.1806 6.05665L12.5006 3.81265C11.4819 2.45265 9.51523 2.27266 8.34857 3.43266L6.25523 5.51266C5.6779 6.08865 5.29123 6.83265 5.3379 7.65932C5.4579 9.77532 6.41523 14.326 11.7539 19.6353C17.4166 25.2647 22.7299 25.4887 24.9019 25.286C25.5899 25.222 26.1872 24.8727 26.6686 24.3927L28.5619 22.51C29.8419 21.2393 29.4819 19.0593 27.8446 18.17L25.2979 16.7847C24.2232 16.202 22.9166 16.3727 22.0766 17.2073Z" fill="black"/>
</svg>
